<mxfile host="app.diagrams.net" modified="2023-05-09T05:03:05.647Z" agent="Mozilla/5.0 (Macintosh; Intel Mac OS X 10.15; rv:109.0) Gecko/20100101 Firefox/112.0" version="21.2.9" etag="R1mbaQo8vPnKu153c18s" type="github">
  <diagram name="Page-1" id="mh1Fe_BH240DZrWx3yRP">
    <mxGraphModel>
      <root>
        <mxCell id="0" />
        <mxCell id="1" parent="0" />
      </root>
    </mxGraphModel>
  </diagram>
</mxfile>
